<svg xmlns="http://www.w3.org/2000/svg" viewBox="0 0 24 24" fill="black">
  <path d="M12 1.75a10.25 10.25 0 1 0 0 20.5 10.25 10.25 0 0 0 0-20.5Zm0 2a8.25 8.25 0 1 1 0 16.5 8.25 8.25 0 0 1 0-16.5Z"/>
  <path d="M12 1.75c.5 0 .9.4.9.9v3a.9.9 0 0 1-1.8 0v-3c0-.5.4-.9.9-.9Zm0 15.7c.5 0 .9.4.9.9v3c0 .5-.4.9-.9.9s-.9-.4-.9-.9v-3c0-.5.4-.9.9-.9Zm9.35-6.35c.5 0 .9.4.9.9s-.4.9-.9.9h-3a.9.9 0 1 1 0-1.8h3Zm-15.7 0a.9.9 0 1 1 0 1.8h-3a.9.9 0 1 1 0-1.8h3Z"/>
  <path d="M16.35 7.25a.9.9 0 0 1-.05 1.28.9.9 0 0 1-1.25-.05c-.74-.82-2.2-1.2-3.7-1.04-1.42.15-2.48.76-2.8 1.62-.15.42-.08.72.23.98.52.45 1.58.75 3.07.98 1.8.27 3.6.67 4.62 1.76.67.72.92 1.63.72 2.64-.36 1.8-2.1 3-4.43 3.08-2.05.08-4.1-.73-5.06-1.98a.9.9 0 1 1 1.42-1.1c.58.75 2.07 1.34 3.57 1.28 1.48-.05 2.55-.66 2.74-1.63.08-.4.01-.72-.28-1.03-.6-.64-1.96-.95-3.57-1.2-1.82-.28-3.05-.68-3.98-1.48-.86-.75-1.1-1.8-.72-2.92.58-1.66 2.3-2.58 4.3-2.8 2.06-.22 4.1.3 5.18 1.6Z"/>
  <circle cx="8" cy="8" r="1.1"/>
  <circle cx="16" cy="16" r="1.1"/>
</svg>
