<svg xmlns="http://www.w3.org/2000/svg" viewBox="0 0 64 64" width="64" height="64" role="img" aria-label="Scope">
  <title>Scope</title>
  <defs>
    <linearGradient id="scopeMarkGradient" x1="0" y1="0" x2="1" y2="1">
      <stop offset="0%" stop-color="#2dd4bf"/>
      <stop offset="55%" stop-color="#14b8a6"/>
      <stop offset="100%" stop-color="#0d9488"/>
    </linearGradient>
    <linearGradient id="scopeMarkSheen" x1="0" y1="0" x2="0" y2="1">
      <stop offset="0%" stop-color="#ffffff" stop-opacity="0.35"/>
      <stop offset="45%" stop-color="#ffffff" stop-opacity="0"/>
    </linearGradient>
  </defs>

  <rect x="0" y="0" width="64" height="64" rx="16" ry="16" fill="url(#scopeMarkGradient)"/>
  <rect x="0" y="0" width="64" height="64" rx="16" ry="16" fill="url(#scopeMarkSheen)"/>

  <g fill="none" stroke="#ffffff" stroke-linecap="round" stroke-linejoin="round">
    <circle cx="32" cy="32" r="19" stroke-width="3.25" opacity="0.54"/>
    <path d="M43 20c-4.6-4.4-16.3-4.8-21 .8-4.1 4.9.3 9.1 9 10.3 10.1 1.5 14.3 5.5 9.7 12.2-4.9 7-17.2 6.3-22.7.8" stroke-width="4.25"/>
    <path d="M32 9v6.5M32 48.5V55M9 32h6.5M48.5 32H55" stroke-width="3.25" opacity="0.82"/>
  </g>

  <circle cx="21" cy="21" r="2.8" fill="#ffffff"/>
  <circle cx="41" cy="43" r="2.8" fill="#ffffff"/>
</svg>
