<svg xmlns="http://www.w3.org/2000/svg" viewBox="0 0 180 180">
  <rect width="180" height="180" fill="#fff"/>
  <g fill="#09090b">
    <rect x="18" y="18" width="42" height="42"/><rect x="30" y="30" width="18" height="18" fill="#fff"/>
    <rect x="120" y="18" width="42" height="42"/><rect x="132" y="30" width="18" height="18" fill="#fff"/>
    <rect x="18" y="120" width="42" height="42"/><rect x="30" y="132" width="18" height="18" fill="#fff"/>
    <rect x="72" y="18" width="12" height="12"/><rect x="90" y="36" width="24" height="12"/><rect x="72" y="54" width="42" height="12"/>
    <rect x="72" y="78" width="18" height="18"/><rect x="102" y="78" width="12" height="54"/><rect x="126" y="78" width="36" height="12"/>
    <rect x="78" y="126" width="12" height="36"/><rect x="96" y="150" width="48" height="12"/><rect x="150" y="114" width="12" height="30"/>
  </g>
</svg>
