<!-- Atlas SVG Icon Library -->
<!-- Usage: Import as Vue components or inline SVGs -->

<!-- ==================== NAVIGATION ==================== -->

<!-- Logo / Map Pin -->
<svg id="icon-logo" xmlns="http://www.w3.org/2000/svg" viewBox="0 0 24 24" fill="none" stroke="currentColor" stroke-width="2" stroke-linecap="round" stroke-linejoin="round">
  <path d="M21 10c0 7-9 13-9 13s-9-6-9-13a9 9 0 0 1 18 0z"/>
  <circle cx="12" cy="10" r="3"/>
</svg>

<!-- Home -->
<svg id="icon-home" xmlns="http://www.w3.org/2000/svg" viewBox="0 0 24 24" fill="none" stroke="currentColor" stroke-width="2" stroke-linecap="round" stroke-linejoin="round">
  <path d="M3 9l9-7 9 7v11a2 2 0 0 1-2 2H5a2 2 0 0 1-2-2z"/>
  <polyline points="9 22 9 12 15 12 15 22"/>
</svg>

<!-- Explore / Compass -->
<svg id="icon-explore" xmlns="http://www.w3.org/2000/svg" viewBox="0 0 24 24" fill="none" stroke="currentColor" stroke-width="2" stroke-linecap="round" stroke-linejoin="round">
  <circle cx="12" cy="12" r="10"/>
  <polygon points="16.24 7.76 14.12 14.12 7.76 16.24 9.88 9.88 16.24 7.76"/>
</svg>

<!-- Map -->
<svg id="icon-map" xmlns="http://www.w3.org/2000/svg" viewBox="0 0 24 24" fill="none" stroke="currentColor" stroke-width="2" stroke-linecap="round" stroke-linejoin="round">
  <polygon points="1 6 1 22 8 18 16 22 23 18 23 2 16 6 8 2 1 6"/>
  <line x1="8" y1="2" x2="8" y2="18"/>
  <line x1="16" y1="6" x2="16" y2="22"/>
</svg>

<!-- Profile / User -->
<svg id="icon-user" xmlns="http://www.w3.org/2000/svg" viewBox="0 0 24 24" fill="none" stroke="currentColor" stroke-width="2" stroke-linecap="round" stroke-linejoin="round">
  <path d="M20 21v-2a4 4 0 0 0-4-4H8a4 4 0 0 0-4 4v2"/>
  <circle cx="12" cy="7" r="4"/>
</svg>

<!-- Friends / Users -->
<svg id="icon-friends" xmlns="http://www.w3.org/2000/svg" viewBox="0 0 24 24" fill="none" stroke="currentColor" stroke-width="2" stroke-linecap="round" stroke-linejoin="round">
  <path d="M17 21v-2a4 4 0 0 0-4-4H5a4 4 0 0 0-4 4v2"/>
  <circle cx="9" cy="7" r="4"/>
  <path d="M23 21v-2a4 4 0 0 0-3-3.87"/>
  <path d="M16 3.13a4 4 0 0 1 0 7.75"/>
</svg>

<!-- Settings / Gear -->
<svg id="icon-settings" xmlns="http://www.w3.org/2000/svg" viewBox="0 0 24 24" fill="none" stroke="currentColor" stroke-width="2" stroke-linecap="round" stroke-linejoin="round">
  <circle cx="12" cy="12" r="3"/>
  <path d="M19.4 15a1.65 1.65 0 0 0 .33 1.82l.06.06a2 2 0 0 1 0 2.83 2 2 0 0 1-2.83 0l-.06-.06a1.65 1.65 0 0 0-1.82-.33 1.65 1.65 0 0 0-1 1.51V21a2 2 0 0 1-2 2 2 2 0 0 1-2-2v-.09A1.65 1.65 0 0 0 9 19.4a1.65 1.65 0 0 0-1.82.33l-.06.06a2 2 0 0 1-2.83 0 2 2 0 0 1 0-2.83l.06-.06A1.65 1.65 0 0 0 4.68 15a1.65 1.65 0 0 0-1.51-1H3a2 2 0 0 1-2-2 2 2 0 0 1 2-2h.09A1.65 1.65 0 0 0 4.6 9a1.65 1.65 0 0 0-.33-1.82l-.06-.06a2 2 0 0 1 0-2.83 2 2 0 0 1 2.83 0l.06.06A1.65 1.65 0 0 0 9 4.68a1.65 1.65 0 0 0 1-1.51V3a2 2 0 0 1 2-2 2 2 0 0 1 2 2v.09a1.65 1.65 0 0 0 1 1.51 1.65 1.65 0 0 0 1.82-.33l.06-.06a2 2 0 0 1 2.83 0 2 2 0 0 1 0 2.83l-.06.06A1.65 1.65 0 0 0 19.4 9a1.65 1.65 0 0 0 1.51 1H21a2 2 0 0 1 2 2 2 2 0 0 1-2 2h-.09a1.65 1.65 0 0 0-1.51 1z"/>
</svg>

<!-- Notification / Bell -->
<svg id="icon-bell" xmlns="http://www.w3.org/2000/svg" viewBox="0 0 24 24" fill="none" stroke="currentColor" stroke-width="2" stroke-linecap="round" stroke-linejoin="round">
  <path d="M18 8A6 6 0 0 0 6 8c0 7-3 9-3 9h18s-3-2-3-9"/>
  <path d="M13.73 21a2 2 0 0 1-3.46 0"/>
</svg>

<!-- ==================== ACTIONS ==================== -->

<!-- Search -->
<svg id="icon-search" xmlns="http://www.w3.org/2000/svg" viewBox="0 0 24 24" fill="none" stroke="currentColor" stroke-width="2" stroke-linecap="round" stroke-linejoin="round">
  <circle cx="11" cy="11" r="8"/>
  <line x1="21" y1="21" x2="16.65" y2="16.65"/>
</svg>

<!-- Plus / Add -->
<svg id="icon-plus" xmlns="http://www.w3.org/2000/svg" viewBox="0 0 24 24" fill="none" stroke="currentColor" stroke-width="2" stroke-linecap="round" stroke-linejoin="round">
  <line x1="12" y1="5" x2="12" y2="19"/>
  <line x1="5" y1="12" x2="19" y2="12"/>
</svg>

<!-- Heart / Like -->
<svg id="icon-heart" xmlns="http://www.w3.org/2000/svg" viewBox="0 0 24 24" fill="none" stroke="currentColor" stroke-width="2" stroke-linecap="round" stroke-linejoin="round">
  <path d="M20.84 4.61a5.5 5.5 0 0 0-7.78 0L12 5.67l-1.06-1.06a5.5 5.5 0 0 0-7.78 7.78l1.06 1.06L12 21.23l7.78-7.78 1.06-1.06a5.5 5.5 0 0 0 0-7.78z"/>
</svg>

<!-- Heart Filled -->
<svg id="icon-heart-filled" xmlns="http://www.w3.org/2000/svg" viewBox="0 0 24 24" fill="currentColor" stroke="currentColor" stroke-width="2" stroke-linecap="round" stroke-linejoin="round">
  <path d="M20.84 4.61a5.5 5.5 0 0 0-7.78 0L12 5.67l-1.06-1.06a5.5 5.5 0 0 0-7.78 7.78l1.06 1.06L12 21.23l7.78-7.78 1.06-1.06a5.5 5.5 0 0 0 0-7.78z"/>
</svg>

<!-- Share -->
<svg id="icon-share" xmlns="http://www.w3.org/2000/svg" viewBox="0 0 24 24" fill="none" stroke="currentColor" stroke-width="2" stroke-linecap="round" stroke-linejoin="round">
  <circle cx="18" cy="5" r="3"/>
  <circle cx="6" cy="12" r="3"/>
  <circle cx="18" cy="19" r="3"/>
  <line x1="8.59" y1="13.51" x2="15.42" y2="17.49"/>
  <line x1="15.41" y1="6.51" x2="8.59" y2="10.49"/>
</svg>

<!-- Upload / Camera -->
<svg id="icon-camera" xmlns="http://www.w3.org/2000/svg" viewBox="0 0 24 24" fill="none" stroke="currentColor" stroke-width="2" stroke-linecap="round" stroke-linejoin="round">
  <path d="M23 19a2 2 0 0 1-2 2H3a2 2 0 0 1-2-2V8a2 2 0 0 1 2-2h4l2-3h6l2 3h4a2 2 0 0 1 2 2z"/>
  <circle cx="12" cy="13" r="4"/>
</svg>

<!-- Edit / Pencil -->
<svg id="icon-edit" xmlns="http://www.w3.org/2000/svg" viewBox="0 0 24 24" fill="none" stroke="currentColor" stroke-width="2" stroke-linecap="round" stroke-linejoin="round">
  <path d="M11 4H4a2 2 0 0 0-2 2v14a2 2 0 0 0 2 2h14a2 2 0 0 0 2-2v-7"/>
  <path d="M18.5 2.5a2.121 2.121 0 0 1 3 3L12 15l-4 1 1-4 9.5-9.5z"/>
</svg>

<!-- Trash / Delete -->
<svg id="icon-trash" xmlns="http://www.w3.org/2000/svg" viewBox="0 0 24 24" fill="none" stroke="currentColor" stroke-width="2" stroke-linecap="round" stroke-linejoin="round">
  <polyline points="3 6 5 6 21 6"/>
  <path d="M19 6v14a2 2 0 0 1-2 2H7a2 2 0 0 1-2-2V6m3 0V4a2 2 0 0 1 2-2h4a2 2 0 0 1 2 2v2"/>
</svg>

<!-- Filter -->
<svg id="icon-filter" xmlns="http://www.w3.org/2000/svg" viewBox="0 0 24 24" fill="none" stroke="currentColor" stroke-width="2" stroke-linecap="round" stroke-linejoin="round">
  <polygon points="22 3 2 3 10 12.46 10 19 14 21 14 12.46 22 3"/>
</svg>

<!-- ==================== CATEGORIES ==================== -->

<!-- Food / Utensils -->
<svg id="icon-food" xmlns="http://www.w3.org/2000/svg" viewBox="0 0 24 24" fill="none" stroke="currentColor" stroke-width="2" stroke-linecap="round" stroke-linejoin="round">
  <path d="M18 8h1a4 4 0 0 1 0 8h-1"/>
  <path d="M2 8h16v9a4 4 0 0 1-4 4H6a4 4 0 0 1-4-4V8z"/>
  <line x1="6" y1="1" x2="6" y2="4"/>
  <line x1="10" y1="1" x2="10" y2="4"/>
  <line x1="14" y1="1" x2="14" y2="4"/>
</svg>

<!-- Nature / Tree -->
<svg id="icon-nature" xmlns="http://www.w3.org/2000/svg" viewBox="0 0 24 24" fill="none" stroke="currentColor" stroke-width="2" stroke-linecap="round" stroke-linejoin="round">
  <path d="M17 14l3-6H4l3 6"/>
  <path d="M15 18l2-4H7l2 4"/>
  <line x1="12" y1="18" x2="12" y2="22"/>
  <path d="M20 8l-8-6-8 6"/>
</svg>

<!-- Nightlife / Moon -->
<svg id="icon-nightlife" xmlns="http://www.w3.org/2000/svg" viewBox="0 0 24 24" fill="none" stroke="currentColor" stroke-width="2" stroke-linecap="round" stroke-linejoin="round">
  <path d="M21 12.79A9 9 0 1 1 11.21 3 7 7 0 0 0 21 12.79z"/>
</svg>

<!-- Culture / Book -->
<svg id="icon-culture" xmlns="http://www.w3.org/2000/svg" viewBox="0 0 24 24" fill="none" stroke="currentColor" stroke-width="2" stroke-linecap="round" stroke-linejoin="round">
  <path d="M4 19.5A2.5 2.5 0 0 1 6.5 17H20"/>
  <path d="M6.5 2H20v20H6.5A2.5 2.5 0 0 1 4 19.5v-15A2.5 2.5 0 0 1 6.5 2z"/>
</svg>

<!-- Adventure / Mountain -->
<svg id="icon-adventure" xmlns="http://www.w3.org/2000/svg" viewBox="0 0 24 24" fill="none" stroke="currentColor" stroke-width="2" stroke-linecap="round" stroke-linejoin="round">
  <path d="M8 21l4-10 4 10"/>
  <path d="M14.5 16l4.5 5H5l4.5-5"/>
  <path d="M12 3l3 7H9l3-7z"/>
</svg>

<!-- Shopping / Bag -->
<svg id="icon-shopping" xmlns="http://www.w3.org/2000/svg" viewBox="0 0 24 24" fill="none" stroke="currentColor" stroke-width="2" stroke-linecap="round" stroke-linejoin="round">
  <path d="M6 2L3 6v14a2 2 0 0 0 2 2h14a2 2 0 0 0 2-2V6l-3-4z"/>
  <line x1="3" y1="6" x2="21" y2="6"/>
  <path d="M16 10a4 4 0 0 1-8 0"/>
</svg>

<!-- Scenic / Sunrise -->
<svg id="icon-scenic" xmlns="http://www.w3.org/2000/svg" viewBox="0 0 24 24" fill="none" stroke="currentColor" stroke-width="2" stroke-linecap="round" stroke-linejoin="round">
  <path d="M17 18a5 5 0 0 0-10 0"/>
  <line x1="12" y1="2" x2="12" y2="9"/>
  <line x1="4.22" y1="10.22" x2="5.64" y2="11.64"/>
  <line x1="1" y1="18" x2="3" y2="18"/>
  <line x1="21" y1="18" x2="23" y2="18"/>
  <line x1="18.36" y1="11.64" x2="19.78" y2="10.22"/>
  <line x1="23" y1="22" x2="1" y2="22"/>
  <polyline points="8 6 12 2 16 6"/>
</svg>

<!-- ==================== MAP ==================== -->

<!-- Pin / Marker -->
<svg id="icon-pin" xmlns="http://www.w3.org/2000/svg" viewBox="0 0 24 24" fill="none" stroke="currentColor" stroke-width="2" stroke-linecap="round" stroke-linejoin="round">
  <path d="M21 10c0 7-9 13-9 13s-9-6-9-13a9 9 0 0 1 18 0z"/>
  <circle cx="12" cy="10" r="3"/>
</svg>

<!-- Navigation / Arrow -->
<svg id="icon-navigation" xmlns="http://www.w3.org/2000/svg" viewBox="0 0 24 24" fill="none" stroke="currentColor" stroke-width="2" stroke-linecap="round" stroke-linejoin="round">
  <polygon points="3 11 22 2 13 21 11 13 3 11"/>
</svg>

<!-- Route -->
<svg id="icon-route" xmlns="http://www.w3.org/2000/svg" viewBox="0 0 24 24" fill="none" stroke="currentColor" stroke-width="2" stroke-linecap="round" stroke-linejoin="round">
  <circle cx="6" cy="19" r="3"/>
  <path d="M9 19h8.5a3.5 3.5 0 0 0 0-7h-11a3.5 3.5 0 0 1 0-7H15"/>
  <circle cx="18" cy="5" r="3"/>
</svg>

<!-- My Location / Crosshair -->
<svg id="icon-crosshair" xmlns="http://www.w3.org/2000/svg" viewBox="0 0 24 24" fill="none" stroke="currentColor" stroke-width="2" stroke-linecap="round" stroke-linejoin="round">
  <circle cx="12" cy="12" r="10"/>
  <line x1="22" y1="12" x2="18" y2="12"/>
  <line x1="6" y1="12" x2="2" y2="12"/>
  <line x1="12" y1="6" x2="12" y2="2"/>
  <line x1="12" y1="22" x2="12" y2="18"/>
</svg>

<!-- Zoom In -->
<svg id="icon-zoom-in" xmlns="http://www.w3.org/2000/svg" viewBox="0 0 24 24" fill="none" stroke="currentColor" stroke-width="2" stroke-linecap="round" stroke-linejoin="round">
  <circle cx="11" cy="11" r="8"/>
  <line x1="21" y1="21" x2="16.65" y2="16.65"/>
  <line x1="11" y1="8" x2="11" y2="14"/>
  <line x1="8" y1="11" x2="14" y2="11"/>
</svg>

<!-- Zoom Out -->
<svg id="icon-zoom-out" xmlns="http://www.w3.org/2000/svg" viewBox="0 0 24 24" fill="none" stroke="currentColor" stroke-width="2" stroke-linecap="round" stroke-linejoin="round">
  <circle cx="11" cy="11" r="8"/>
  <line x1="21" y1="21" x2="16.65" y2="16.65"/>
  <line x1="8" y1="11" x2="14" y2="11"/>
</svg>

<!-- ==================== TRIPS ==================== -->

<!-- Calendar -->
<svg id="icon-calendar" xmlns="http://www.w3.org/2000/svg" viewBox="0 0 24 24" fill="none" stroke="currentColor" stroke-width="2" stroke-linecap="round" stroke-linejoin="round">
  <rect x="3" y="4" width="18" height="18" rx="2" ry="2"/>
  <line x1="16" y1="2" x2="16" y2="6"/>
  <line x1="8" y1="2" x2="8" y2="6"/>
  <line x1="3" y1="10" x2="21" y2="10"/>
</svg>

<!-- Clock -->
<svg id="icon-clock" xmlns="http://www.w3.org/2000/svg" viewBox="0 0 24 24" fill="none" stroke="currentColor" stroke-width="2" stroke-linecap="round" stroke-linejoin="round">
  <circle cx="12" cy="12" r="10"/>
  <polyline points="12 6 12 12 16 14"/>
</svg>

<!-- Dollar / Budget -->
<svg id="icon-dollar" xmlns="http://www.w3.org/2000/svg" viewBox="0 0 24 24" fill="none" stroke="currentColor" stroke-width="2" stroke-linecap="round" stroke-linejoin="round">
  <line x1="12" y1="1" x2="12" y2="23"/>
  <path d="M17 5H9.5a3.5 3.5 0 0 0 0 7h5a3.5 3.5 0 0 1 0 7H6"/>
</svg>

<!-- Sparkle / AI -->
<svg id="icon-sparkle" xmlns="http://www.w3.org/2000/svg" viewBox="0 0 24 24" fill="none" stroke="currentColor" stroke-width="2" stroke-linecap="round" stroke-linejoin="round">
  <path d="M12 2l2.4 7.2L22 12l-7.6 2.8L12 22l-2.4-7.2L2 12l7.6-2.8z"/>
</svg>

<!-- ==================== MISC ==================== -->

<!-- Star (empty) -->
<svg id="icon-star" xmlns="http://www.w3.org/2000/svg" viewBox="0 0 24 24" fill="none" stroke="currentColor" stroke-width="2" stroke-linecap="round" stroke-linejoin="round">
  <polygon points="12 2 15.09 8.26 22 9.27 17 14.14 18.18 21.02 12 17.77 5.82 21.02 7 14.14 2 9.27 8.91 8.26 12 2"/>
</svg>

<!-- Star (filled) -->
<svg id="icon-star-filled" xmlns="http://www.w3.org/2000/svg" viewBox="0 0 24 24" fill="currentColor" stroke="currentColor" stroke-width="2" stroke-linecap="round" stroke-linejoin="round">
  <polygon points="12 2 15.09 8.26 22 9.27 17 14.14 18.18 21.02 12 17.77 5.82 21.02 7 14.14 2 9.27 8.91 8.26 12 2"/>
</svg>

<!-- Arrow Left -->
<svg id="icon-arrow-left" xmlns="http://www.w3.org/2000/svg" viewBox="0 0 24 24" fill="none" stroke="currentColor" stroke-width="2" stroke-linecap="round" stroke-linejoin="round">
  <line x1="19" y1="12" x2="5" y2="12"/>
  <polyline points="12 19 5 12 12 5"/>
</svg>

<!-- Arrow Right -->
<svg id="icon-arrow-right" xmlns="http://www.w3.org/2000/svg" viewBox="0 0 24 24" fill="none" stroke="currentColor" stroke-width="2" stroke-linecap="round" stroke-linejoin="round">
  <line x1="5" y1="12" x2="19" y2="12"/>
  <polyline points="12 5 19 12 12 19"/>
</svg>

<!-- Chevron Down -->
<svg id="icon-chevron-down" xmlns="http://www.w3.org/2000/svg" viewBox="0 0 24 24" fill="none" stroke="currentColor" stroke-width="2" stroke-linecap="round" stroke-linejoin="round">
  <polyline points="6 9 12 15 18 9"/>
</svg>

<!-- X / Close -->
<svg id="icon-close" xmlns="http://www.w3.org/2000/svg" viewBox="0 0 24 24" fill="none" stroke="currentColor" stroke-width="2" stroke-linecap="round" stroke-linejoin="round">
  <line x1="18" y1="6" x2="6" y2="18"/>
  <line x1="6" y1="6" x2="18" y2="18"/>
</svg>

<!-- Menu / Hamburger -->
<svg id="icon-menu" xmlns="http://www.w3.org/2000/svg" viewBox="0 0 24 24" fill="none" stroke="currentColor" stroke-width="2" stroke-linecap="round" stroke-linejoin="round">
  <line x1="3" y1="12" x2="21" y2="12"/>
  <line x1="3" y1="6" x2="21" y2="6"/>
  <line x1="3" y1="18" x2="21" y2="18"/>
</svg>

<!-- Sun (Light Mode Toggle) -->
<svg id="icon-sun" xmlns="http://www.w3.org/2000/svg" viewBox="0 0 24 24" fill="none" stroke="currentColor" stroke-width="2" stroke-linecap="round" stroke-linejoin="round">
  <circle cx="12" cy="12" r="5"/>
  <line x1="12" y1="1" x2="12" y2="3"/>
  <line x1="12" y1="21" x2="12" y2="23"/>
  <line x1="4.22" y1="4.22" x2="5.64" y2="5.64"/>
  <line x1="18.36" y1="18.36" x2="19.78" y2="19.78"/>
  <line x1="1" y1="12" x2="3" y2="12"/>
  <line x1="21" y1="12" x2="23" y2="12"/>
  <line x1="4.22" y1="19.78" x2="5.64" y2="18.36"/>
  <line x1="18.36" y1="5.64" x2="19.78" y2="4.22"/>
</svg>

<!-- Moon (Dark Mode Toggle) -->
<svg id="icon-moon" xmlns="http://www.w3.org/2000/svg" viewBox="0 0 24 24" fill="none" stroke="currentColor" stroke-width="2" stroke-linecap="round" stroke-linejoin="round">
  <path d="M21 12.79A9 9 0 1 1 11.21 3 7 7 0 0 0 21 12.79z"/>
</svg>

<!-- Globe / Location -->
<svg id="icon-globe" xmlns="http://www.w3.org/2000/svg" viewBox="0 0 24 24" fill="none" stroke="currentColor" stroke-width="2" stroke-linecap="round" stroke-linejoin="round">
  <circle cx="12" cy="12" r="10"/>
  <line x1="2" y1="12" x2="22" y2="12"/>
  <path d="M12 2a15.3 15.3 0 0 1 4 10 15.3 15.3 0 0 1-4 10 15.3 15.3 0 0 1-4-10 15.3 15.3 0 0 1 4-10z"/>
</svg>

<!-- Image / Photo -->
<svg id="icon-image" xmlns="http://www.w3.org/2000/svg" viewBox="0 0 24 24" fill="none" stroke="currentColor" stroke-width="2" stroke-linecap="round" stroke-linejoin="round">
  <rect x="3" y="3" width="18" height="18" rx="2" ry="2"/>
  <circle cx="8.5" cy="8.5" r="1.5"/>
  <polyline points="21 15 16 10 5 21"/>
</svg>

<!-- Drag Handle -->
<svg id="icon-grip" xmlns="http://www.w3.org/2000/svg" viewBox="0 0 24 24" fill="none" stroke="currentColor" stroke-width="2" stroke-linecap="round" stroke-linejoin="round">
  <circle cx="9" cy="5" r="1"/><circle cx="9" cy="12" r="1"/><circle cx="9" cy="19" r="1"/>
  <circle cx="15" cy="5" r="1"/><circle cx="15" cy="12" r="1"/><circle cx="15" cy="19" r="1"/>
</svg>

<!-- Weather / Cloud -->
<svg id="icon-weather" xmlns="http://www.w3.org/2000/svg" viewBox="0 0 24 24" fill="none" stroke="currentColor" stroke-width="2" stroke-linecap="round" stroke-linejoin="round">
  <path d="M18 10h-1.26A8 8 0 1 0 9 20h9a5 5 0 0 0 0-10z"/>
</svg>

<!-- Logout -->
<svg id="icon-logout" xmlns="http://www.w3.org/2000/svg" viewBox="0 0 24 24" fill="none" stroke="currentColor" stroke-width="2" stroke-linecap="round" stroke-linejoin="round">
  <path d="M9 21H5a2 2 0 0 1-2-2V5a2 2 0 0 1 2-2h4"/>
  <polyline points="16 17 21 12 16 7"/>
  <line x1="21" y1="12" x2="9" y2="12"/>
</svg>
